<?xml version="1.0" encoding="utf-8" standalone="no"?>
<!DOCTYPE svg PUBLIC "-//W3C//DTD SVG 1.1//EN"
  "http://www.w3.org/Graphics/SVG/1.1/DTD/svg11.dtd">
<svg xmlns:xlink="http://www.w3.org/1999/xlink" width="244.8pt" height="144pt" viewBox="0 0 244.8 144" xmlns="http://www.w3.org/2000/svg" version="1.1">
 <metadata>
  <rdf:RDF xmlns:dc="http://purl.org/dc/elements/1.1/" xmlns:cc="http://creativecommons.org/ns#" xmlns:rdf="http://www.w3.org/1999/02/22-rdf-syntax-ns#">
   <cc:Work>
    <dc:type rdf:resource="http://purl.org/dc/dcmitype/StillImage"/>
    <dc:date>2025-05-04T10:54:35.308777</dc:date>
    <dc:format>image/svg+xml</dc:format>
    <dc:creator>
     <cc:Agent>
      <dc:title>Matplotlib v3.10.1, https://matplotlib.org/</dc:title>
     </cc:Agent>
    </dc:creator>
   </cc:Work>
  </rdf:RDF>
 </metadata>
 <defs>
  <style type="text/css">*{stroke-linejoin: round; stroke-linecap: butt}</style>
 </defs>
 <g id="figure_1">
  <g id="patch_1">
   <path d="M 0 144 
L 244.8 144 
L 244.8 0 
L 0 0 
z
" style="fill: #ffffff"/>
  </g>
  <g id="axes_1">
   <g id="patch_2">
    <path d="M 35.805 108.78 
L 235.08 108.78 
L 235.08 12.96 
L 35.805 12.96 
z
" style="fill: #ffffff"/>
   </g>
   <g id="matplotlib.axis_1">
    <g id="xtick_1">
     <g id="line2d_1">
      <defs>
       <path id="mdf566214a4" d="M 0 0 
L 0 -5 
" style="stroke: #000000; stroke-width: 1.5"/>
      </defs>
      <g>
       <use xlink:href="#mdf566214a4" x="62.978864" y="108.78" style="stroke: #000000; stroke-width: 1.5"/>
      </g>
     </g>
     <g id="line2d_2">
      <defs>
       <path id="mcc9bfef9f7" d="M 0 0 
L 0 5 
" style="stroke: #000000; stroke-width: 1.5"/>
      </defs>
      <g>
       <use xlink:href="#mcc9bfef9f7" x="62.978864" y="12.96" style="stroke: #000000; stroke-width: 1.5"/>
      </g>
     </g>
     <g id="text_1">
      <!-- 60 -->
      <g transform="translate(57.97402 118.722031) scale(0.09 -0.09)">
       <defs>
        <path id="ArialMT-36" d="M 3184 3459 
L 2625 3416 
Q 2550 3747 2413 3897 
Q 2184 4138 1850 4138 
Q 1581 4138 1378 3988 
Q 1113 3794 959 3422 
Q 806 3050 800 2363 
Q 1003 2672 1297 2822 
Q 1591 2972 1913 2972 
Q 2475 2972 2870 2558 
Q 3266 2144 3266 1488 
Q 3266 1056 3080 686 
Q 2894 316 2569 119 
Q 2244 -78 1831 -78 
Q 1128 -78 684 439 
Q 241 956 241 2144 
Q 241 3472 731 4075 
Q 1159 4600 1884 4600 
Q 2425 4600 2770 4297 
Q 3116 3994 3184 3459 
z
M 888 1484 
Q 888 1194 1011 928 
Q 1134 663 1356 523 
Q 1578 384 1822 384 
Q 2178 384 2434 671 
Q 2691 959 2691 1453 
Q 2691 1928 2437 2201 
Q 2184 2475 1800 2475 
Q 1419 2475 1153 2201 
Q 888 1928 888 1484 
z
" transform="scale(0.015625)"/>
        <path id="ArialMT-30" d="M 266 2259 
Q 266 3072 433 3567 
Q 600 4063 929 4331 
Q 1259 4600 1759 4600 
Q 2128 4600 2406 4451 
Q 2684 4303 2865 4023 
Q 3047 3744 3150 3342 
Q 3253 2941 3253 2259 
Q 3253 1453 3087 958 
Q 2922 463 2592 192 
Q 2263 -78 1759 -78 
Q 1097 -78 719 397 
Q 266 969 266 2259 
z
M 844 2259 
Q 844 1131 1108 757 
Q 1372 384 1759 384 
Q 2147 384 2411 759 
Q 2675 1134 2675 2259 
Q 2675 3391 2411 3762 
Q 2147 4134 1753 4134 
Q 1366 4134 1134 3806 
Q 844 3388 844 2259 
z
" transform="scale(0.015625)"/>
       </defs>
       <use xlink:href="#ArialMT-36"/>
       <use xlink:href="#ArialMT-30" transform="translate(55.615234 0)"/>
      </g>
     </g>
    </g>
    <g id="xtick_2">
     <g id="line2d_3">
      <g>
       <use xlink:href="#mdf566214a4" x="99.210682" y="108.78" style="stroke: #000000; stroke-width: 1.5"/>
      </g>
     </g>
     <g id="line2d_4">
      <g>
       <use xlink:href="#mcc9bfef9f7" x="99.210682" y="12.96" style="stroke: #000000; stroke-width: 1.5"/>
      </g>
     </g>
     <g id="text_2">
      <!-- 80 -->
      <g transform="translate(94.205838 118.722031) scale(0.09 -0.09)">
       <defs>
        <path id="ArialMT-38" d="M 1131 2484 
Q 781 2613 612 2850 
Q 444 3088 444 3419 
Q 444 3919 803 4259 
Q 1163 4600 1759 4600 
Q 2359 4600 2725 4251 
Q 3091 3903 3091 3403 
Q 3091 3084 2923 2848 
Q 2756 2613 2416 2484 
Q 2838 2347 3058 2040 
Q 3278 1734 3278 1309 
Q 3278 722 2862 322 
Q 2447 -78 1769 -78 
Q 1091 -78 675 323 
Q 259 725 259 1325 
Q 259 1772 486 2073 
Q 713 2375 1131 2484 
z
M 1019 3438 
Q 1019 3113 1228 2906 
Q 1438 2700 1772 2700 
Q 2097 2700 2305 2904 
Q 2513 3109 2513 3406 
Q 2513 3716 2298 3927 
Q 2084 4138 1766 4138 
Q 1444 4138 1231 3931 
Q 1019 3725 1019 3438 
z
M 838 1322 
Q 838 1081 952 856 
Q 1066 631 1291 507 
Q 1516 384 1775 384 
Q 2178 384 2440 643 
Q 2703 903 2703 1303 
Q 2703 1709 2433 1975 
Q 2163 2241 1756 2241 
Q 1359 2241 1098 1978 
Q 838 1716 838 1322 
z
" transform="scale(0.015625)"/>
       </defs>
       <use xlink:href="#ArialMT-38"/>
       <use xlink:href="#ArialMT-30" transform="translate(55.615234 0)"/>
      </g>
     </g>
    </g>
    <g id="xtick_3">
     <g id="line2d_5">
      <g>
       <use xlink:href="#mdf566214a4" x="135.4425" y="108.78" style="stroke: #000000; stroke-width: 1.5"/>
      </g>
     </g>
     <g id="line2d_6">
      <g>
       <use xlink:href="#mcc9bfef9f7" x="135.4425" y="12.96" style="stroke: #000000; stroke-width: 1.5"/>
      </g>
     </g>
     <g id="text_3">
      <!-- 100 -->
      <g transform="translate(127.935234 118.722031) scale(0.09 -0.09)">
       <defs>
        <path id="ArialMT-31" d="M 2384 0 
L 1822 0 
L 1822 3584 
Q 1619 3391 1289 3197 
Q 959 3003 697 2906 
L 697 3450 
Q 1169 3672 1522 3987 
Q 1875 4303 2022 4600 
L 2384 4600 
L 2384 0 
z
" transform="scale(0.015625)"/>
       </defs>
       <use xlink:href="#ArialMT-31"/>
       <use xlink:href="#ArialMT-30" transform="translate(55.615234 0)"/>
       <use xlink:href="#ArialMT-30" transform="translate(111.230469 0)"/>
      </g>
     </g>
    </g>
    <g id="xtick_4">
     <g id="line2d_7">
      <g>
       <use xlink:href="#mdf566214a4" x="171.674318" y="108.78" style="stroke: #000000; stroke-width: 1.5"/>
      </g>
     </g>
     <g id="line2d_8">
      <g>
       <use xlink:href="#mcc9bfef9f7" x="171.674318" y="12.96" style="stroke: #000000; stroke-width: 1.5"/>
      </g>
     </g>
     <g id="text_4">
      <!-- 120 -->
      <g transform="translate(164.167053 118.722031) scale(0.09 -0.09)">
       <defs>
        <path id="ArialMT-32" d="M 3222 541 
L 3222 0 
L 194 0 
Q 188 203 259 391 
Q 375 700 629 1000 
Q 884 1300 1366 1694 
Q 2113 2306 2375 2664 
Q 2638 3022 2638 3341 
Q 2638 3675 2398 3904 
Q 2159 4134 1775 4134 
Q 1369 4134 1125 3890 
Q 881 3647 878 3216 
L 300 3275 
Q 359 3922 746 4261 
Q 1134 4600 1788 4600 
Q 2447 4600 2831 4234 
Q 3216 3869 3216 3328 
Q 3216 3053 3103 2787 
Q 2991 2522 2730 2228 
Q 2469 1934 1863 1422 
Q 1356 997 1212 845 
Q 1069 694 975 541 
L 3222 541 
z
" transform="scale(0.015625)"/>
       </defs>
       <use xlink:href="#ArialMT-31"/>
       <use xlink:href="#ArialMT-32" transform="translate(55.615234 0)"/>
       <use xlink:href="#ArialMT-30" transform="translate(111.230469 0)"/>
      </g>
     </g>
    </g>
    <g id="xtick_5">
     <g id="line2d_9">
      <g>
       <use xlink:href="#mdf566214a4" x="207.906136" y="108.78" style="stroke: #000000; stroke-width: 1.5"/>
      </g>
     </g>
     <g id="line2d_10">
      <g>
       <use xlink:href="#mcc9bfef9f7" x="207.906136" y="12.96" style="stroke: #000000; stroke-width: 1.5"/>
      </g>
     </g>
     <g id="text_5">
      <!-- 140 -->
      <g transform="translate(200.398871 118.722031) scale(0.09 -0.09)">
       <defs>
        <path id="ArialMT-34" d="M 2069 0 
L 2069 1097 
L 81 1097 
L 81 1613 
L 2172 4581 
L 2631 4581 
L 2631 1613 
L 3250 1613 
L 3250 1097 
L 2631 1097 
L 2631 0 
L 2069 0 
z
M 2069 1613 
L 2069 3678 
L 634 1613 
L 2069 1613 
z
" transform="scale(0.015625)"/>
       </defs>
       <use xlink:href="#ArialMT-31"/>
       <use xlink:href="#ArialMT-34" transform="translate(55.615234 0)"/>
       <use xlink:href="#ArialMT-30" transform="translate(111.230469 0)"/>
      </g>
     </g>
    </g>
    <g id="xtick_6">
     <g id="line2d_11">
      <defs>
       <path id="m057a66d545" d="M 0 0 
L 0 -2.5 
" style="stroke: #000000; stroke-width: 1.5"/>
      </defs>
      <g>
       <use xlink:href="#m057a66d545" x="35.805" y="108.78" style="stroke: #000000; stroke-width: 1.5"/>
      </g>
     </g>
     <g id="line2d_12">
      <defs>
       <path id="mfa39b110e2" d="M 0 0 
L 0 2.5 
" style="stroke: #000000; stroke-width: 1.5"/>
      </defs>
      <g>
       <use xlink:href="#mfa39b110e2" x="35.805" y="12.96" style="stroke: #000000; stroke-width: 1.5"/>
      </g>
     </g>
    </g>
    <g id="xtick_7">
     <g id="line2d_13">
      <g>
       <use xlink:href="#m057a66d545" x="44.862955" y="108.78" style="stroke: #000000; stroke-width: 1.5"/>
      </g>
     </g>
     <g id="line2d_14">
      <g>
       <use xlink:href="#mfa39b110e2" x="44.862955" y="12.96" style="stroke: #000000; stroke-width: 1.5"/>
      </g>
     </g>
    </g>
    <g id="xtick_8">
     <g id="line2d_15">
      <g>
       <use xlink:href="#m057a66d545" x="53.920909" y="108.78" style="stroke: #000000; stroke-width: 1.5"/>
      </g>
     </g>
     <g id="line2d_16">
      <g>
       <use xlink:href="#mfa39b110e2" x="53.920909" y="12.96" style="stroke: #000000; stroke-width: 1.5"/>
      </g>
     </g>
    </g>
    <g id="xtick_9">
     <g id="line2d_17">
      <g>
       <use xlink:href="#m057a66d545" x="72.036818" y="108.78" style="stroke: #000000; stroke-width: 1.5"/>
      </g>
     </g>
     <g id="line2d_18">
      <g>
       <use xlink:href="#mfa39b110e2" x="72.036818" y="12.96" style="stroke: #000000; stroke-width: 1.5"/>
      </g>
     </g>
    </g>
    <g id="xtick_10">
     <g id="line2d_19">
      <g>
       <use xlink:href="#m057a66d545" x="81.094773" y="108.78" style="stroke: #000000; stroke-width: 1.5"/>
      </g>
     </g>
     <g id="line2d_20">
      <g>
       <use xlink:href="#mfa39b110e2" x="81.094773" y="12.96" style="stroke: #000000; stroke-width: 1.5"/>
      </g>
     </g>
    </g>
    <g id="xtick_11">
     <g id="line2d_21">
      <g>
       <use xlink:href="#m057a66d545" x="90.152727" y="108.78" style="stroke: #000000; stroke-width: 1.5"/>
      </g>
     </g>
     <g id="line2d_22">
      <g>
       <use xlink:href="#mfa39b110e2" x="90.152727" y="12.96" style="stroke: #000000; stroke-width: 1.5"/>
      </g>
     </g>
    </g>
    <g id="xtick_12">
     <g id="line2d_23">
      <g>
       <use xlink:href="#m057a66d545" x="108.268636" y="108.78" style="stroke: #000000; stroke-width: 1.5"/>
      </g>
     </g>
     <g id="line2d_24">
      <g>
       <use xlink:href="#mfa39b110e2" x="108.268636" y="12.96" style="stroke: #000000; stroke-width: 1.5"/>
      </g>
     </g>
    </g>
    <g id="xtick_13">
     <g id="line2d_25">
      <g>
       <use xlink:href="#m057a66d545" x="117.326591" y="108.78" style="stroke: #000000; stroke-width: 1.5"/>
      </g>
     </g>
     <g id="line2d_26">
      <g>
       <use xlink:href="#mfa39b110e2" x="117.326591" y="12.96" style="stroke: #000000; stroke-width: 1.5"/>
      </g>
     </g>
    </g>
    <g id="xtick_14">
     <g id="line2d_27">
      <g>
       <use xlink:href="#m057a66d545" x="126.384545" y="108.78" style="stroke: #000000; stroke-width: 1.5"/>
      </g>
     </g>
     <g id="line2d_28">
      <g>
       <use xlink:href="#mfa39b110e2" x="126.384545" y="12.96" style="stroke: #000000; stroke-width: 1.5"/>
      </g>
     </g>
    </g>
    <g id="xtick_15">
     <g id="line2d_29">
      <g>
       <use xlink:href="#m057a66d545" x="144.500455" y="108.78" style="stroke: #000000; stroke-width: 1.5"/>
      </g>
     </g>
     <g id="line2d_30">
      <g>
       <use xlink:href="#mfa39b110e2" x="144.500455" y="12.96" style="stroke: #000000; stroke-width: 1.5"/>
      </g>
     </g>
    </g>
    <g id="xtick_16">
     <g id="line2d_31">
      <g>
       <use xlink:href="#m057a66d545" x="153.558409" y="108.78" style="stroke: #000000; stroke-width: 1.5"/>
      </g>
     </g>
     <g id="line2d_32">
      <g>
       <use xlink:href="#mfa39b110e2" x="153.558409" y="12.96" style="stroke: #000000; stroke-width: 1.5"/>
      </g>
     </g>
    </g>
    <g id="xtick_17">
     <g id="line2d_33">
      <g>
       <use xlink:href="#m057a66d545" x="162.616364" y="108.78" style="stroke: #000000; stroke-width: 1.5"/>
      </g>
     </g>
     <g id="line2d_34">
      <g>
       <use xlink:href="#mfa39b110e2" x="162.616364" y="12.96" style="stroke: #000000; stroke-width: 1.5"/>
      </g>
     </g>
    </g>
    <g id="xtick_18">
     <g id="line2d_35">
      <g>
       <use xlink:href="#m057a66d545" x="180.732273" y="108.78" style="stroke: #000000; stroke-width: 1.5"/>
      </g>
     </g>
     <g id="line2d_36">
      <g>
       <use xlink:href="#mfa39b110e2" x="180.732273" y="12.96" style="stroke: #000000; stroke-width: 1.5"/>
      </g>
     </g>
    </g>
    <g id="xtick_19">
     <g id="line2d_37">
      <g>
       <use xlink:href="#m057a66d545" x="189.790227" y="108.78" style="stroke: #000000; stroke-width: 1.5"/>
      </g>
     </g>
     <g id="line2d_38">
      <g>
       <use xlink:href="#mfa39b110e2" x="189.790227" y="12.96" style="stroke: #000000; stroke-width: 1.5"/>
      </g>
     </g>
    </g>
    <g id="xtick_20">
     <g id="line2d_39">
      <g>
       <use xlink:href="#m057a66d545" x="198.848182" y="108.78" style="stroke: #000000; stroke-width: 1.5"/>
      </g>
     </g>
     <g id="line2d_40">
      <g>
       <use xlink:href="#mfa39b110e2" x="198.848182" y="12.96" style="stroke: #000000; stroke-width: 1.5"/>
      </g>
     </g>
    </g>
    <g id="xtick_21">
     <g id="line2d_41">
      <g>
       <use xlink:href="#m057a66d545" x="216.964091" y="108.78" style="stroke: #000000; stroke-width: 1.5"/>
      </g>
     </g>
     <g id="line2d_42">
      <g>
       <use xlink:href="#mfa39b110e2" x="216.964091" y="12.96" style="stroke: #000000; stroke-width: 1.5"/>
      </g>
     </g>
    </g>
    <g id="xtick_22">
     <g id="line2d_43">
      <g>
       <use xlink:href="#m057a66d545" x="226.022045" y="108.78" style="stroke: #000000; stroke-width: 1.5"/>
      </g>
     </g>
     <g id="line2d_44">
      <g>
       <use xlink:href="#mfa39b110e2" x="226.022045" y="12.96" style="stroke: #000000; stroke-width: 1.5"/>
      </g>
     </g>
    </g>
    <g id="xtick_23">
     <g id="line2d_45">
      <g>
       <use xlink:href="#m057a66d545" x="235.08" y="108.78" style="stroke: #000000; stroke-width: 1.5"/>
      </g>
     </g>
     <g id="line2d_46">
      <g>
       <use xlink:href="#mfa39b110e2" x="235.08" y="12.96" style="stroke: #000000; stroke-width: 1.5"/>
      </g>
     </g>
    </g>
    <g id="text_6">
     <!-- $\Omega_\text{max}/2\pi$ (MHz) -->
     <g transform="translate(104.5275 131.260781) scale(0.09 -0.09)">
      <defs>
       <path id="DejaVuSans-3a9" d="M 4647 556 
L 4647 0 
L 2772 0 
L 2772 556 
Q 3325 859 3634 1378 
Q 3944 1897 3944 2528 
Q 3944 3278 3531 3731 
Q 3119 4184 2444 4184 
Q 1769 4184 1355 3729 
Q 941 3275 941 2528 
Q 941 1897 1250 1378 
Q 1563 859 2119 556 
L 2119 0 
L 244 0 
L 244 556 
L 1241 556 
Q 747 991 519 1456 
Q 294 1922 294 2497 
Q 294 3491 894 4106 
Q 1491 4722 2444 4722 
Q 3391 4722 3994 4106 
Q 4594 3494 4594 2528 
Q 4594 1922 4372 1459 
Q 4150 997 3647 556 
L 4647 556 
z
" transform="scale(0.015625)"/>
       <path id="DejaVuSans-6d" d="M 3328 2828 
Q 3544 3216 3844 3400 
Q 4144 3584 4550 3584 
Q 5097 3584 5394 3201 
Q 5691 2819 5691 2113 
L 5691 0 
L 5113 0 
L 5113 2094 
Q 5113 2597 4934 2840 
Q 4756 3084 4391 3084 
Q 3944 3084 3684 2787 
Q 3425 2491 3425 1978 
L 3425 0 
L 2847 0 
L 2847 2094 
Q 2847 2600 2669 2842 
Q 2491 3084 2119 3084 
Q 1678 3084 1418 2786 
Q 1159 2488 1159 1978 
L 1159 0 
L 581 0 
L 581 3500 
L 1159 3500 
L 1159 2956 
Q 1356 3278 1631 3431 
Q 1906 3584 2284 3584 
Q 2666 3584 2933 3390 
Q 3200 3197 3328 2828 
z
" transform="scale(0.015625)"/>
       <path id="DejaVuSans-61" d="M 2194 1759 
Q 1497 1759 1228 1600 
Q 959 1441 959 1056 
Q 959 750 1161 570 
Q 1363 391 1709 391 
Q 2188 391 2477 730 
Q 2766 1069 2766 1631 
L 2766 1759 
L 2194 1759 
z
M 3341 1997 
L 3341 0 
L 2766 0 
L 2766 531 
Q 2569 213 2275 61 
Q 1981 -91 1556 -91 
Q 1019 -91 701 211 
Q 384 513 384 1019 
Q 384 1609 779 1909 
Q 1175 2209 1959 2209 
L 2766 2209 
L 2766 2266 
Q 2766 2663 2505 2880 
Q 2244 3097 1772 3097 
Q 1472 3097 1187 3025 
Q 903 2953 641 2809 
L 641 3341 
Q 956 3463 1253 3523 
Q 1550 3584 1831 3584 
Q 2591 3584 2966 3190 
Q 3341 2797 3341 1997 
z
" transform="scale(0.015625)"/>
       <path id="DejaVuSans-78" d="M 3513 3500 
L 2247 1797 
L 3578 0 
L 2900 0 
L 1881 1375 
L 863 0 
L 184 0 
L 1544 1831 
L 300 3500 
L 978 3500 
L 1906 2253 
L 2834 3500 
L 3513 3500 
z
" transform="scale(0.015625)"/>
       <path id="DejaVuSans-2f" d="M 1625 4666 
L 2156 4666 
L 531 -594 
L 0 -594 
L 1625 4666 
z
" transform="scale(0.015625)"/>
       <path id="DejaVuSans-32" d="M 1228 531 
L 3431 531 
L 3431 0 
L 469 0 
L 469 531 
Q 828 903 1448 1529 
Q 2069 2156 2228 2338 
Q 2531 2678 2651 2914 
Q 2772 3150 2772 3378 
Q 2772 3750 2511 3984 
Q 2250 4219 1831 4219 
Q 1534 4219 1204 4116 
Q 875 4013 500 3803 
L 500 4441 
Q 881 4594 1212 4672 
Q 1544 4750 1819 4750 
Q 2544 4750 2975 4387 
Q 3406 4025 3406 3419 
Q 3406 3131 3298 2873 
Q 3191 2616 2906 2266 
Q 2828 2175 2409 1742 
Q 1991 1309 1228 531 
z
" transform="scale(0.015625)"/>
       <path id="DejaVuSans-Oblique-3c0" d="M 584 3500 
L 3938 3500 
L 3825 2925 
L 3384 2925 
L 2966 775 
Q 2922 550 2981 450 
Q 3038 353 3209 353 
Q 3256 353 3325 363 
Q 3397 369 3419 372 
L 3338 -44 
Q 3222 -84 3103 -103 
Q 2981 -122 2866 -122 
Q 2491 -122 2388 81 
Q 2284 288 2391 838 
L 2797 2925 
L 1506 2925 
L 938 0 
L 350 0 
L 919 2925 
L 472 2925 
L 584 3500 
z
" transform="scale(0.015625)"/>
       <path id="ArialMT-20" transform="scale(0.015625)"/>
       <path id="ArialMT-28" d="M 1497 -1347 
Q 1031 -759 709 28 
Q 388 816 388 1659 
Q 388 2403 628 3084 
Q 909 3875 1497 4659 
L 1900 4659 
Q 1522 4009 1400 3731 
Q 1209 3300 1100 2831 
Q 966 2247 966 1656 
Q 966 153 1900 -1347 
L 1497 -1347 
z
" transform="scale(0.015625)"/>
       <path id="ArialMT-4d" d="M 475 0 
L 475 4581 
L 1388 4581 
L 2472 1338 
Q 2622 884 2691 659 
Q 2769 909 2934 1394 
L 4031 4581 
L 4847 4581 
L 4847 0 
L 4263 0 
L 4263 3834 
L 2931 0 
L 2384 0 
L 1059 3900 
L 1059 0 
L 475 0 
z
" transform="scale(0.015625)"/>
       <path id="ArialMT-48" d="M 513 0 
L 513 4581 
L 1119 4581 
L 1119 2700 
L 3500 2700 
L 3500 4581 
L 4106 4581 
L 4106 0 
L 3500 0 
L 3500 2159 
L 1119 2159 
L 1119 0 
L 513 0 
z
" transform="scale(0.015625)"/>
       <path id="ArialMT-7a" d="M 125 0 
L 125 456 
L 2238 2881 
Q 1878 2863 1603 2863 
L 250 2863 
L 250 3319 
L 2963 3319 
L 2963 2947 
L 1166 841 
L 819 456 
Q 1197 484 1528 484 
L 3063 484 
L 3063 0 
L 125 0 
z
" transform="scale(0.015625)"/>
       <path id="ArialMT-29" d="M 791 -1347 
L 388 -1347 
Q 1322 153 1322 1656 
Q 1322 2244 1188 2822 
Q 1081 3291 891 3722 
Q 769 4003 388 4659 
L 791 4659 
Q 1378 3875 1659 3084 
Q 1900 2403 1900 1659 
Q 1900 816 1576 28 
Q 1253 -759 791 -1347 
z
" transform="scale(0.015625)"/>
      </defs>
      <use xlink:href="#DejaVuSans-3a9" transform="translate(0 0.78125)"/>
      <use xlink:href="#DejaVuSans-6d" transform="translate(77.373047 -15.625) scale(0.7)"/>
      <use xlink:href="#DejaVuSans-61" transform="translate(145.561523 -15.625) scale(0.7)"/>
      <use xlink:href="#DejaVuSans-78" transform="translate(188.457031 -15.625) scale(0.7)"/>
      <use xlink:href="#DejaVuSans-2f" transform="translate(232.617188 0.78125)"/>
      <use xlink:href="#DejaVuSans-32" transform="translate(262.683594 0.78125)"/>
      <use xlink:href="#DejaVuSans-Oblique-3c0" transform="translate(326.306641 0.78125)"/>
      <use xlink:href="#ArialMT-20" transform="translate(386.511719 0.78125)"/>
      <use xlink:href="#ArialMT-28" transform="translate(414.294922 0.78125)"/>
      <use xlink:href="#ArialMT-4d" transform="translate(447.595703 0.78125)"/>
      <use xlink:href="#ArialMT-48" transform="translate(530.896484 0.78125)"/>
      <use xlink:href="#ArialMT-7a" transform="translate(603.113281 0.78125)"/>
      <use xlink:href="#ArialMT-29" transform="translate(653.113281 0.78125)"/>
     </g>
    </g>
   </g>
   <g id="matplotlib.axis_2">
    <g id="ytick_1">
     <g id="line2d_47">
      <defs>
       <path id="mf6cbb658f8" d="M 0 0 
L 5 0 
" style="stroke: #000000; stroke-width: 1.5"/>
      </defs>
      <g>
       <use xlink:href="#mf6cbb658f8" x="35.805" y="108.78" style="stroke: #000000; stroke-width: 1.5"/>
      </g>
     </g>
     <g id="line2d_48">
      <defs>
       <path id="m6df1d62712" d="M 0 0 
L -5 0 
" style="stroke: #000000; stroke-width: 1.5"/>
      </defs>
      <g>
       <use xlink:href="#m6df1d62712" x="235.08" y="108.78" style="stroke: #000000; stroke-width: 1.5"/>
      </g>
     </g>
     <g id="text_7">
      <!-- −2 -->
      <g transform="translate(22.043594 112.001016) scale(0.09 -0.09)">
       <defs>
        <path id="ArialMT-2212" d="M 3381 1997 
L 356 1997 
L 356 2522 
L 3381 2522 
L 3381 1997 
z
" transform="scale(0.015625)"/>
       </defs>
       <use xlink:href="#ArialMT-2212"/>
       <use xlink:href="#ArialMT-32" transform="translate(58.398438 0)"/>
      </g>
     </g>
    </g>
    <g id="ytick_2">
     <g id="line2d_49">
      <g>
       <use xlink:href="#mf6cbb658f8" x="35.805" y="84.825" style="stroke: #000000; stroke-width: 1.5"/>
      </g>
     </g>
     <g id="line2d_50">
      <g>
       <use xlink:href="#m6df1d62712" x="235.08" y="84.825" style="stroke: #000000; stroke-width: 1.5"/>
      </g>
     </g>
     <g id="text_8">
      <!-- −1 -->
      <g transform="translate(22.043594 88.046016) scale(0.09 -0.09)">
       <use xlink:href="#ArialMT-2212"/>
       <use xlink:href="#ArialMT-31" transform="translate(58.398438 0)"/>
      </g>
     </g>
    </g>
    <g id="ytick_3">
     <g id="line2d_51">
      <g>
       <use xlink:href="#mf6cbb658f8" x="35.805" y="60.87" style="stroke: #000000; stroke-width: 1.5"/>
      </g>
     </g>
     <g id="line2d_52">
      <g>
       <use xlink:href="#m6df1d62712" x="235.08" y="60.87" style="stroke: #000000; stroke-width: 1.5"/>
      </g>
     </g>
     <g id="text_9">
      <!-- 0 -->
      <g transform="translate(27.300156 64.091016) scale(0.09 -0.09)">
       <use xlink:href="#ArialMT-30"/>
      </g>
     </g>
    </g>
    <g id="ytick_4">
     <g id="line2d_53">
      <g>
       <use xlink:href="#mf6cbb658f8" x="35.805" y="36.915" style="stroke: #000000; stroke-width: 1.5"/>
      </g>
     </g>
     <g id="line2d_54">
      <g>
       <use xlink:href="#m6df1d62712" x="235.08" y="36.915" style="stroke: #000000; stroke-width: 1.5"/>
      </g>
     </g>
     <g id="text_10">
      <!-- 1 -->
      <g transform="translate(27.300156 40.136016) scale(0.09 -0.09)">
       <use xlink:href="#ArialMT-31"/>
      </g>
     </g>
    </g>
    <g id="ytick_5">
     <g id="line2d_55">
      <g>
       <use xlink:href="#mf6cbb658f8" x="35.805" y="12.96" style="stroke: #000000; stroke-width: 1.5"/>
      </g>
     </g>
     <g id="line2d_56">
      <g>
       <use xlink:href="#m6df1d62712" x="235.08" y="12.96" style="stroke: #000000; stroke-width: 1.5"/>
      </g>
     </g>
     <g id="text_11">
      <!-- 2 -->
      <g transform="translate(27.300156 16.181016) scale(0.09 -0.09)">
       <use xlink:href="#ArialMT-32"/>
      </g>
     </g>
    </g>
    <g id="ytick_6">
     <g id="line2d_57">
      <defs>
       <path id="mbe7c6380b4" d="M 0 0 
L 2.5 0 
" style="stroke: #000000; stroke-width: 1.5"/>
      </defs>
      <g>
       <use xlink:href="#mbe7c6380b4" x="35.805" y="103.989" style="stroke: #000000; stroke-width: 1.5"/>
      </g>
     </g>
     <g id="line2d_58">
      <defs>
       <path id="m605f13bbd9" d="M 0 0 
L -2.5 0 
" style="stroke: #000000; stroke-width: 1.5"/>
      </defs>
      <g>
       <use xlink:href="#m605f13bbd9" x="235.08" y="103.989" style="stroke: #000000; stroke-width: 1.5"/>
      </g>
     </g>
    </g>
    <g id="ytick_7">
     <g id="line2d_59">
      <g>
       <use xlink:href="#mbe7c6380b4" x="35.805" y="99.198" style="stroke: #000000; stroke-width: 1.5"/>
      </g>
     </g>
     <g id="line2d_60">
      <g>
       <use xlink:href="#m605f13bbd9" x="235.08" y="99.198" style="stroke: #000000; stroke-width: 1.5"/>
      </g>
     </g>
    </g>
    <g id="ytick_8">
     <g id="line2d_61">
      <g>
       <use xlink:href="#mbe7c6380b4" x="35.805" y="94.407" style="stroke: #000000; stroke-width: 1.5"/>
      </g>
     </g>
     <g id="line2d_62">
      <g>
       <use xlink:href="#m605f13bbd9" x="235.08" y="94.407" style="stroke: #000000; stroke-width: 1.5"/>
      </g>
     </g>
    </g>
    <g id="ytick_9">
     <g id="line2d_63">
      <g>
       <use xlink:href="#mbe7c6380b4" x="35.805" y="89.616" style="stroke: #000000; stroke-width: 1.5"/>
      </g>
     </g>
     <g id="line2d_64">
      <g>
       <use xlink:href="#m605f13bbd9" x="235.08" y="89.616" style="stroke: #000000; stroke-width: 1.5"/>
      </g>
     </g>
    </g>
    <g id="ytick_10">
     <g id="line2d_65">
      <g>
       <use xlink:href="#mbe7c6380b4" x="35.805" y="80.034" style="stroke: #000000; stroke-width: 1.5"/>
      </g>
     </g>
     <g id="line2d_66">
      <g>
       <use xlink:href="#m605f13bbd9" x="235.08" y="80.034" style="stroke: #000000; stroke-width: 1.5"/>
      </g>
     </g>
    </g>
    <g id="ytick_11">
     <g id="line2d_67">
      <g>
       <use xlink:href="#mbe7c6380b4" x="35.805" y="75.243" style="stroke: #000000; stroke-width: 1.5"/>
      </g>
     </g>
     <g id="line2d_68">
      <g>
       <use xlink:href="#m605f13bbd9" x="235.08" y="75.243" style="stroke: #000000; stroke-width: 1.5"/>
      </g>
     </g>
    </g>
    <g id="ytick_12">
     <g id="line2d_69">
      <g>
       <use xlink:href="#mbe7c6380b4" x="35.805" y="70.452" style="stroke: #000000; stroke-width: 1.5"/>
      </g>
     </g>
     <g id="line2d_70">
      <g>
       <use xlink:href="#m605f13bbd9" x="235.08" y="70.452" style="stroke: #000000; stroke-width: 1.5"/>
      </g>
     </g>
    </g>
    <g id="ytick_13">
     <g id="line2d_71">
      <g>
       <use xlink:href="#mbe7c6380b4" x="35.805" y="65.661" style="stroke: #000000; stroke-width: 1.5"/>
      </g>
     </g>
     <g id="line2d_72">
      <g>
       <use xlink:href="#m605f13bbd9" x="235.08" y="65.661" style="stroke: #000000; stroke-width: 1.5"/>
      </g>
     </g>
    </g>
    <g id="ytick_14">
     <g id="line2d_73">
      <g>
       <use xlink:href="#mbe7c6380b4" x="35.805" y="56.079" style="stroke: #000000; stroke-width: 1.5"/>
      </g>
     </g>
     <g id="line2d_74">
      <g>
       <use xlink:href="#m605f13bbd9" x="235.08" y="56.079" style="stroke: #000000; stroke-width: 1.5"/>
      </g>
     </g>
    </g>
    <g id="ytick_15">
     <g id="line2d_75">
      <g>
       <use xlink:href="#mbe7c6380b4" x="35.805" y="51.288" style="stroke: #000000; stroke-width: 1.5"/>
      </g>
     </g>
     <g id="line2d_76">
      <g>
       <use xlink:href="#m605f13bbd9" x="235.08" y="51.288" style="stroke: #000000; stroke-width: 1.5"/>
      </g>
     </g>
    </g>
    <g id="ytick_16">
     <g id="line2d_77">
      <g>
       <use xlink:href="#mbe7c6380b4" x="35.805" y="46.497" style="stroke: #000000; stroke-width: 1.5"/>
      </g>
     </g>
     <g id="line2d_78">
      <g>
       <use xlink:href="#m605f13bbd9" x="235.08" y="46.497" style="stroke: #000000; stroke-width: 1.5"/>
      </g>
     </g>
    </g>
    <g id="ytick_17">
     <g id="line2d_79">
      <g>
       <use xlink:href="#mbe7c6380b4" x="35.805" y="41.706" style="stroke: #000000; stroke-width: 1.5"/>
      </g>
     </g>
     <g id="line2d_80">
      <g>
       <use xlink:href="#m605f13bbd9" x="235.08" y="41.706" style="stroke: #000000; stroke-width: 1.5"/>
      </g>
     </g>
    </g>
    <g id="ytick_18">
     <g id="line2d_81">
      <g>
       <use xlink:href="#mbe7c6380b4" x="35.805" y="32.124" style="stroke: #000000; stroke-width: 1.5"/>
      </g>
     </g>
     <g id="line2d_82">
      <g>
       <use xlink:href="#m605f13bbd9" x="235.08" y="32.124" style="stroke: #000000; stroke-width: 1.5"/>
      </g>
     </g>
    </g>
    <g id="ytick_19">
     <g id="line2d_83">
      <g>
       <use xlink:href="#mbe7c6380b4" x="35.805" y="27.333" style="stroke: #000000; stroke-width: 1.5"/>
      </g>
     </g>
     <g id="line2d_84">
      <g>
       <use xlink:href="#m605f13bbd9" x="235.08" y="27.333" style="stroke: #000000; stroke-width: 1.5"/>
      </g>
     </g>
    </g>
    <g id="ytick_20">
     <g id="line2d_85">
      <g>
       <use xlink:href="#mbe7c6380b4" x="35.805" y="22.542" style="stroke: #000000; stroke-width: 1.5"/>
      </g>
     </g>
     <g id="line2d_86">
      <g>
       <use xlink:href="#m605f13bbd9" x="235.08" y="22.542" style="stroke: #000000; stroke-width: 1.5"/>
      </g>
     </g>
    </g>
    <g id="ytick_21">
     <g id="line2d_87">
      <g>
       <use xlink:href="#mbe7c6380b4" x="35.805" y="17.751" style="stroke: #000000; stroke-width: 1.5"/>
      </g>
     </g>
     <g id="line2d_88">
      <g>
       <use xlink:href="#m605f13bbd9" x="235.08" y="17.751" style="stroke: #000000; stroke-width: 1.5"/>
      </g>
     </g>
    </g>
    <g id="text_12">
     <!-- Inversion error (nT) -->
     <g transform="translate(16.149375 99.375938) rotate(-90) scale(0.09 -0.09)">
      <defs>
       <path id="ArialMT-49" d="M 597 0 
L 597 4581 
L 1203 4581 
L 1203 0 
L 597 0 
z
" transform="scale(0.015625)"/>
       <path id="ArialMT-6e" d="M 422 0 
L 422 3319 
L 928 3319 
L 928 2847 
Q 1294 3394 1984 3394 
Q 2284 3394 2536 3286 
Q 2788 3178 2913 3003 
Q 3038 2828 3088 2588 
Q 3119 2431 3119 2041 
L 3119 0 
L 2556 0 
L 2556 2019 
Q 2556 2363 2490 2533 
Q 2425 2703 2258 2804 
Q 2091 2906 1866 2906 
Q 1506 2906 1245 2678 
Q 984 2450 984 1813 
L 984 0 
L 422 0 
z
" transform="scale(0.015625)"/>
       <path id="ArialMT-76" d="M 1344 0 
L 81 3319 
L 675 3319 
L 1388 1331 
Q 1503 1009 1600 663 
Q 1675 925 1809 1294 
L 2547 3319 
L 3125 3319 
L 1869 0 
L 1344 0 
z
" transform="scale(0.015625)"/>
       <path id="ArialMT-65" d="M 2694 1069 
L 3275 997 
Q 3138 488 2766 206 
Q 2394 -75 1816 -75 
Q 1088 -75 661 373 
Q 234 822 234 1631 
Q 234 2469 665 2931 
Q 1097 3394 1784 3394 
Q 2450 3394 2872 2941 
Q 3294 2488 3294 1666 
Q 3294 1616 3291 1516 
L 816 1516 
Q 847 969 1125 678 
Q 1403 388 1819 388 
Q 2128 388 2347 550 
Q 2566 713 2694 1069 
z
M 847 1978 
L 2700 1978 
Q 2663 2397 2488 2606 
Q 2219 2931 1791 2931 
Q 1403 2931 1139 2672 
Q 875 2413 847 1978 
z
" transform="scale(0.015625)"/>
       <path id="ArialMT-72" d="M 416 0 
L 416 3319 
L 922 3319 
L 922 2816 
Q 1116 3169 1280 3281 
Q 1444 3394 1641 3394 
Q 1925 3394 2219 3213 
L 2025 2691 
Q 1819 2813 1613 2813 
Q 1428 2813 1281 2702 
Q 1134 2591 1072 2394 
Q 978 2094 978 1738 
L 978 0 
L 416 0 
z
" transform="scale(0.015625)"/>
       <path id="ArialMT-73" d="M 197 991 
L 753 1078 
Q 800 744 1014 566 
Q 1228 388 1613 388 
Q 2000 388 2187 545 
Q 2375 703 2375 916 
Q 2375 1106 2209 1216 
Q 2094 1291 1634 1406 
Q 1016 1563 777 1677 
Q 538 1791 414 1992 
Q 291 2194 291 2438 
Q 291 2659 392 2848 
Q 494 3038 669 3163 
Q 800 3259 1026 3326 
Q 1253 3394 1513 3394 
Q 1903 3394 2198 3281 
Q 2494 3169 2634 2976 
Q 2775 2784 2828 2463 
L 2278 2388 
Q 2241 2644 2061 2787 
Q 1881 2931 1553 2931 
Q 1166 2931 1000 2803 
Q 834 2675 834 2503 
Q 834 2394 903 2306 
Q 972 2216 1119 2156 
Q 1203 2125 1616 2013 
Q 2213 1853 2448 1751 
Q 2684 1650 2818 1456 
Q 2953 1263 2953 975 
Q 2953 694 2789 445 
Q 2625 197 2315 61 
Q 2006 -75 1616 -75 
Q 969 -75 630 194 
Q 291 463 197 991 
z
" transform="scale(0.015625)"/>
       <path id="ArialMT-69" d="M 425 3934 
L 425 4581 
L 988 4581 
L 988 3934 
L 425 3934 
z
M 425 0 
L 425 3319 
L 988 3319 
L 988 0 
L 425 0 
z
" transform="scale(0.015625)"/>
       <path id="ArialMT-6f" d="M 213 1659 
Q 213 2581 725 3025 
Q 1153 3394 1769 3394 
Q 2453 3394 2887 2945 
Q 3322 2497 3322 1706 
Q 3322 1066 3130 698 
Q 2938 331 2570 128 
Q 2203 -75 1769 -75 
Q 1072 -75 642 372 
Q 213 819 213 1659 
z
M 791 1659 
Q 791 1022 1069 705 
Q 1347 388 1769 388 
Q 2188 388 2466 706 
Q 2744 1025 2744 1678 
Q 2744 2294 2464 2611 
Q 2184 2928 1769 2928 
Q 1347 2928 1069 2612 
Q 791 2297 791 1659 
z
" transform="scale(0.015625)"/>
       <path id="ArialMT-54" d="M 1659 0 
L 1659 4041 
L 150 4041 
L 150 4581 
L 3781 4581 
L 3781 4041 
L 2266 4041 
L 2266 0 
L 1659 0 
z
" transform="scale(0.015625)"/>
      </defs>
      <use xlink:href="#ArialMT-49"/>
      <use xlink:href="#ArialMT-6e" transform="translate(27.783203 0)"/>
      <use xlink:href="#ArialMT-76" transform="translate(83.398438 0)"/>
      <use xlink:href="#ArialMT-65" transform="translate(133.398438 0)"/>
      <use xlink:href="#ArialMT-72" transform="translate(189.013672 0)"/>
      <use xlink:href="#ArialMT-73" transform="translate(222.314453 0)"/>
      <use xlink:href="#ArialMT-69" transform="translate(272.314453 0)"/>
      <use xlink:href="#ArialMT-6f" transform="translate(294.53125 0)"/>
      <use xlink:href="#ArialMT-6e" transform="translate(350.146484 0)"/>
      <use xlink:href="#ArialMT-20" transform="translate(405.761719 0)"/>
      <use xlink:href="#ArialMT-65" transform="translate(433.544922 0)"/>
      <use xlink:href="#ArialMT-72" transform="translate(489.160156 0)"/>
      <use xlink:href="#ArialMT-72" transform="translate(522.460938 0)"/>
      <use xlink:href="#ArialMT-6f" transform="translate(555.761719 0)"/>
      <use xlink:href="#ArialMT-72" transform="translate(611.376953 0)"/>
      <use xlink:href="#ArialMT-20" transform="translate(644.677734 0)"/>
      <use xlink:href="#ArialMT-28" transform="translate(672.460938 0)"/>
      <use xlink:href="#ArialMT-6e" transform="translate(705.761719 0)"/>
      <use xlink:href="#ArialMT-54" transform="translate(761.376953 0)"/>
      <use xlink:href="#ArialMT-29" transform="translate(822.460938 0)"/>
     </g>
    </g>
   </g>
   <g id="line2d_89">
    <path d="M 44.862955 57.693129 
L 45.76875 60.420416 
L 46.674545 62.759774 
L 48.486136 74.712802 
L 49.391932 75.721077 
L 50.297727 74.157886 
L 51.203523 69.570891 
L 52.109318 62.946462 
L 53.015114 49.681526 
L 53.920909 40.148048 
L 54.826705 33.029383 
L 55.7325 29.875792 
L 56.638295 29.547572 
L 57.544091 34.377473 
L 58.449886 43.30206 
L 59.355682 51.002544 
L 61.167273 63.304352 
L 62.073068 67.688421 
L 62.978864 69.076923 
L 63.884659 68.906285 
L 64.790455 69.859652 
L 65.69625 70.335579 
L 67.507841 66.07539 
L 68.413636 63.429309 
L 69.319432 60.273226 
L 70.225227 54.370783 
L 71.131023 50.483573 
L 72.036818 47.999191 
L 72.942614 46.443848 
L 73.848409 45.60699 
L 74.754205 47.16215 
L 75.66 50.212836 
L 76.565795 52.501753 
L 77.471591 54.292024 
L 79.283182 60.372476 
L 81.094773 64.916648 
L 82.000568 68.517523 
L 82.906364 70.860705 
L 83.812159 71.203828 
L 84.717955 70.308287 
L 85.62375 67.938651 
L 86.529545 64.217341 
L 87.435341 58.132257 
L 88.341136 53.591509 
L 89.246932 50.163552 
L 90.152727 47.981507 
L 91.058523 47.303772 
L 91.964318 49.041512 
L 93.775909 55.058352 
L 94.681705 57.477881 
L 95.5875 60.628418 
L 96.493295 62.824681 
L 97.399091 64.149876 
L 98.304886 65.033084 
L 99.210682 66.462861 
L 100.116477 67.108393 
L 101.022273 66.585644 
L 101.928068 65.838026 
L 102.833864 64.616559 
L 103.739659 62.632539 
L 104.645455 59.672844 
L 105.55125 57.602989 
L 107.362841 54.854727 
L 108.268636 54.134845 
L 109.174432 54.509571 
L 110.080227 55.28465 
L 111.891818 56.182712 
L 114.609205 60.446344 
L 115.515 62.237693 
L 116.420795 64.928034 
L 117.326591 66.733365 
L 118.232386 67.607893 
L 119.138182 67.709464 
L 120.043977 66.766433 
L 120.949773 64.54196 
L 121.855568 61.326328 
L 122.761364 58.583055 
L 123.667159 56.464279 
L 124.572955 54.71423 
L 125.47875 54.074199 
L 126.384545 54.729849 
L 129.101932 58.252105 
L 130.007727 59.836219 
L 130.913523 60.844362 
L 132.725114 62.42256 
L 133.630909 63.59478 
L 134.536705 64.246891 
L 135.4425 64.460326 
L 136.348295 64.54981 
L 137.254091 64.252728 
L 138.159886 63.207632 
L 139.065682 61.766572 
L 139.971477 60.551259 
L 141.783068 58.410834 
L 142.688864 57.749067 
L 143.594659 57.595323 
L 144.500455 57.593773 
L 145.40625 57.440569 
L 146.312045 57.549275 
L 148.123636 58.800211 
L 149.029432 59.709289 
L 149.935227 60.997524 
L 150.841023 62.741751 
L 151.746818 64.027731 
L 152.652614 64.882632 
L 153.558409 65.360899 
L 154.464205 65.137706 
L 155.37 63.969745 
L 157.181591 60.819421 
L 158.993182 58.178457 
L 159.898977 57.589605 
L 160.804773 57.613432 
L 162.616364 58.222761 
L 163.522159 58.747688 
L 164.427955 59.532638 
L 166.239545 60.612733 
L 168.956932 62.742254 
L 170.768523 63.380586 
L 171.674318 63.3423 
L 173.485909 62.156533 
L 177.109091 59.778374 
L 178.920682 59.141164 
L 179.826477 58.706141 
L 180.732273 58.543408 
L 182.543864 58.866523 
L 183.449659 59.381586 
L 184.355455 60.365897 
L 186.167045 62.566435 
L 187.072841 63.343371 
L 187.978636 63.919134 
L 188.884432 63.937021 
L 189.790227 63.315337 
L 191.601818 61.579005 
L 193.413409 59.841367 
L 194.319205 59.433843 
L 196.130795 59.241996 
L 197.036591 59.233815 
L 199.753977 59.89773 
L 200.659773 60.185236 
L 203.377159 61.801297 
L 205.18875 62.598967 
L 206.094545 62.689272 
L 207.906136 62.205498 
L 209.717727 61.534833 
L 210.623523 61.060734 
L 213.340909 60.110446 
L 214.246705 59.698108 
L 215.1525 59.447846 
L 216.964091 59.308292 
L 217.869886 59.555177 
L 219.681477 60.968875 
L 221.493068 62.430959 
L 222.398864 63.016941 
L 223.304659 63.168554 
L 224.210455 62.957642 
L 226.022045 62.112562 
L 226.022045 62.112562 
" clip-path="url(#pb2634a3e6e)" style="fill: none; stroke: #1f77b4; stroke-width: 1.5; stroke-linecap: square"/>
   </g>
   <g id="line2d_90">
    <path d="M 45.462833 -1 
L 45.76875 6.167926 
L 46.674545 18.846988 
L 47.580341 27.645735 
L 48.486136 34.818345 
L 49.391932 37.287251 
L 50.297727 39.42602 
L 51.203523 40.256501 
L 52.109318 39.295326 
L 53.015114 39.983072 
L 54.826705 40.34082 
L 55.7325 42.568067 
L 56.638295 44.453606 
L 57.544091 46.879406 
L 59.355682 53.287948 
L 62.073068 62.217756 
L 62.978864 64.083677 
L 63.884659 65.57241 
L 64.790455 66.525573 
L 65.69625 66.681371 
L 66.602045 66.151066 
L 67.507841 65.474159 
L 68.413636 64.316493 
L 69.319432 62.75306 
L 70.225227 61.811035 
L 72.036818 59.201159 
L 72.942614 58.323025 
L 75.66 56.322187 
L 76.565795 56.37601 
L 77.471591 55.706157 
L 78.377386 55.457436 
L 79.283182 55.591459 
L 80.188977 54.718919 
L 82.000568 54.22611 
L 82.906364 53.736279 
L 83.812159 53.44885 
L 85.62375 53.47169 
L 86.529545 53.263858 
L 87.435341 54.059218 
L 89.246932 55.056998 
L 90.152727 56.672847 
L 91.058523 57.764961 
L 91.964318 59.246748 
L 92.870114 61.102665 
L 94.681705 64.200848 
L 96.493295 67.260251 
L 97.399091 68.376409 
L 98.304886 69.279975 
L 99.210682 69.906163 
L 100.116477 70.033644 
L 101.022273 69.842469 
L 101.928068 69.367687 
L 102.833864 68.490695 
L 104.645455 66.236229 
L 109.174432 59.188089 
L 110.080227 58.012389 
L 110.986023 57.360744 
L 111.891818 56.516077 
L 112.797614 56.117639 
L 113.703409 56.088817 
L 114.609205 55.83023 
L 115.515 56.068932 
L 118.232386 57.188902 
L 120.043977 58.220045 
L 120.949773 58.474348 
L 121.855568 59.101852 
L 123.667159 59.606818 
L 124.572955 60.238491 
L 125.47875 60.511802 
L 126.384545 60.935959 
L 127.290341 61.536609 
L 128.196136 62.000085 
L 130.007727 63.275466 
L 131.819318 64.501198 
L 133.630909 65.553122 
L 134.536705 65.777932 
L 135.4425 65.876693 
L 136.348295 65.764102 
L 137.254091 65.379494 
L 138.159886 64.842357 
L 139.065682 64.126171 
L 140.877273 62.20714 
L 143.594659 59.136361 
L 144.500455 58.25528 
L 146.312045 57.165907 
L 147.217841 56.963295 
L 149.029432 57.122494 
L 150.841023 58.043892 
L 154.464205 60.30187 
L 157.181591 61.187685 
L 158.087386 61.210077 
L 158.993182 61.391585 
L 160.804773 61.325571 
L 163.522159 61.605563 
L 166.239545 62.451245 
L 168.051136 63.184719 
L 169.862727 63.574689 
L 170.768523 63.608254 
L 172.580114 63.199688 
L 173.485909 62.766873 
L 175.2975 61.519627 
L 178.014886 59.348378 
L 178.920682 58.73642 
L 180.732273 57.997109 
L 181.638068 57.894549 
L 183.449659 58.182111 
L 185.26125 59.070466 
L 188.884432 61.091425 
L 190.696023 61.646198 
L 191.601818 61.724901 
L 194.319205 61.514359 
L 196.130795 61.267707 
L 197.942386 61.136769 
L 199.753977 61.326329 
L 201.565568 61.730682 
L 203.377159 62.155436 
L 205.18875 62.40091 
L 207.000341 62.204554 
L 208.811932 61.541638 
L 210.623523 60.593126 
L 212.435114 59.598738 
L 213.340909 59.199444 
L 215.1525 58.772605 
L 216.058295 58.778201 
L 217.869886 59.180734 
L 220.587273 60.292157 
L 221.493068 60.44828 
L 222.398864 60.293007 
L 223.304659 59.524126 
L 224.210455 57.785865 
L 225.11625 59.895648 
L 225.293467 145 
L 225.293467 145 
" clip-path="url(#pb2634a3e6e)" style="fill: none; stroke: #ff7f0e; stroke-width: 1.5; stroke-linecap: square"/>
   </g>
   <g id="line2d_91">
    <path d="M 48.873754 145 
L 51.203523 115.637471 
L 54.826705 81.458037 
L 55.7325 76.129411 
L 56.638295 71.707291 
L 57.544091 68.020647 
L 58.449886 65.773028 
L 61.167273 62.203674 
L 62.073068 61.651605 
L 62.978864 61.623159 
L 63.884659 62.16678 
L 65.69625 64.51957 
L 67.507841 66.653685 
L 68.413636 67.333817 
L 69.319432 67.465257 
L 71.131023 66.995434 
L 72.036818 67.070166 
L 72.942614 67.485027 
L 73.848409 68.491124 
L 76.565795 73.044362 
L 77.471591 74.100524 
L 78.377386 74.713083 
L 79.283182 74.909157 
L 80.188977 74.964434 
L 81.094773 74.784119 
L 82.000568 74.117777 
L 82.906364 73.190502 
L 83.812159 71.983491 
L 84.717955 69.840797 
L 87.435341 60.578289 
L 89.246932 53.405095 
L 90.152727 50.86006 
L 91.058523 49.019422 
L 91.964318 47.515962 
L 92.870114 46.569835 
L 93.775909 46.125782 
L 94.681705 45.85626 
L 95.5875 45.834253 
L 96.493295 46.180882 
L 97.399091 46.814474 
L 98.304886 47.892195 
L 102.833864 55.939296 
L 103.739659 57.249319 
L 104.645455 58.212845 
L 105.55125 59.381846 
L 108.268636 63.713995 
L 110.080227 67.065897 
L 110.986023 68.26831 
L 111.891818 69.060913 
L 112.797614 69.492118 
L 113.703409 69.514423 
L 114.609205 69.307203 
L 115.515 68.923116 
L 116.420795 68.123793 
L 118.232386 65.77507 
L 119.138182 64.20354 
L 123.667159 53.699547 
L 124.572955 52.226727 
L 125.47875 51.342323 
L 126.384545 50.745195 
L 127.290341 50.414669 
L 128.196136 50.35657 
L 129.101932 50.421328 
L 130.007727 50.644075 
L 130.913523 51.125933 
L 131.819318 51.779295 
L 132.725114 52.586104 
L 134.536705 54.96108 
L 138.159886 59.296921 
L 139.971477 60.901098 
L 144.500455 65.85917 
L 145.40625 66.469404 
L 146.312045 66.750045 
L 147.217841 66.76084 
L 148.123636 66.476835 
L 149.935227 65.483525 
L 150.841023 64.729856 
L 153.558409 61.512612 
L 157.181591 56.189417 
L 158.087386 55.144827 
L 158.993182 54.373365 
L 159.898977 53.995819 
L 160.804773 53.86072 
L 161.710568 53.873762 
L 163.522159 54.230577 
L 164.427955 54.505551 
L 165.33375 54.953014 
L 167.145341 56.132516 
L 168.051136 56.842676 
L 169.862727 58.558235 
L 173.485909 61.288408 
L 175.2975 62.425346 
L 177.109091 63.736574 
L 178.920682 64.701232 
L 179.826477 64.927309 
L 180.732273 64.920734 
L 181.638068 64.745004 
L 182.543864 64.364957 
L 185.26125 62.649404 
L 188.884432 59.356652 
L 190.696023 57.556624 
L 192.507614 56.440195 
L 193.413409 56.098849 
L 194.319205 55.992451 
L 196.130795 56.196873 
L 198.848182 56.923405 
L 199.753977 57.269881 
L 203.377159 59.256213 
L 205.18875 60.3873 
L 210.623523 62.944633 
L 212.435114 63.59797 
L 213.340909 63.594452 
L 214.246705 61.019712 
L 215.1525 60.73002 
L 216.058295 63.135539 
L 216.964091 62.745344 
L 220.587273 60.441168 
L 221.493068 59.982417 
L 222.398864 59.8879 
L 223.304659 60.42106 
L 224.210455 61.801604 
L 225.11625 59.516907 
L 225.217944 -1 
L 225.217944 -1 
" clip-path="url(#pb2634a3e6e)" style="fill: none; stroke: #2ca02c; stroke-width: 1.5; stroke-linecap: square"/>
   </g>
   <g id="line2d_92">
    <path d="M 46.258432 145 
L 47.580341 112.566205 
L 48.486136 101.716403 
L 50.297727 84.354793 
L 51.203523 80.95037 
L 53.015114 77.290405 
L 53.920909 77.062565 
L 54.826705 77.26194 
L 57.544091 76.057444 
L 60.261477 72.616873 
L 62.073068 69.175083 
L 62.978864 68.021989 
L 63.884659 66.419193 
L 64.790455 64.494434 
L 66.602045 61.202224 
L 68.413636 57.844362 
L 69.319432 56.329054 
L 70.225227 55.572939 
L 72.036818 54.504742 
L 72.942614 55.131305 
L 73.848409 55.941381 
L 74.754205 56.593213 
L 76.565795 59.875726 
L 77.471591 60.948038 
L 79.283182 63.939001 
L 83.812159 68.904601 
L 84.717955 69.455744 
L 86.529545 71.064178 
L 87.435341 70.955081 
L 88.341136 70.997946 
L 89.246932 71.267603 
L 91.058523 69.392014 
L 91.964318 68.853195 
L 93.775909 65.879346 
L 94.681705 64.912078 
L 96.493295 62.105345 
L 101.022273 57.336763 
L 102.833864 56.226836 
L 103.739659 55.560933 
L 105.55125 55.664665 
L 106.457045 55.511533 
L 107.362841 56.117686 
L 108.268636 56.878077 
L 109.174432 57.327032 
L 111.891818 60.116465 
L 114.609205 62.618252 
L 115.515 63.305847 
L 118.232386 65.021808 
L 120.043977 65.636651 
L 120.949773 66.156247 
L 122.761364 66.043517 
L 123.667159 66.224893 
L 124.572955 65.840523 
L 125.47875 65.262125 
L 126.384545 64.959779 
L 127.290341 64.314848 
L 128.196136 63.487772 
L 130.007727 62.244628 
L 131.819318 60.956414 
L 132.725114 60.390056 
L 135.4425 59.007535 
L 137.254091 58.561432 
L 138.159886 58.165383 
L 140.877273 58.167093 
L 141.783068 58.415168 
L 142.688864 58.855592 
L 143.594659 59.110026 
L 144.500455 59.554032 
L 145.40625 60.131919 
L 149.935227 62.293823 
L 151.746818 62.81233 
L 152.652614 63.198201 
L 154.464205 63.447207 
L 155.37 63.75414 
L 156.275795 63.767374 
L 157.181591 63.665061 
L 158.087386 63.756054 
L 158.993182 63.602525 
L 159.898977 63.253577 
L 160.804773 63.046231 
L 161.710568 62.724236 
L 163.522159 61.909989 
L 167.145341 60.482867 
L 170.768523 59.646581 
L 171.674318 59.58724 
L 172.580114 59.35991 
L 173.485909 59.331832 
L 174.391705 59.440081 
L 175.2975 59.394678 
L 176.203295 59.493346 
L 178.014886 59.939622 
L 179.826477 60.498142 
L 184.355455 61.811019 
L 189.790227 62.567332 
L 190.696023 62.612284 
L 191.601818 62.514542 
L 193.413409 62.477214 
L 201.565568 60.525755 
L 207.906136 59.840691 
L 210.623523 59.935371 
L 212.435114 60.449884 
L 214.246705 61.28394 
L 215.1525 61.71379 
L 216.058295 61.958557 
L 216.964091 61.634636 
L 217.869886 60.206153 
L 218.775682 62.022205 
L 218.851717 -1 
M 220.38338 -1 
L 220.532385 145 
M 220.591582 145 
L 220.603281 -1 
M 222.388625 -1 
L 222.398864 125.950098 
L 223.304659 44.032454 
L 224.210455 59.045054 
L 225.11625 59.793833 
L 226.022045 60.716467 
L 226.022045 60.716467 
" clip-path="url(#pb2634a3e6e)" style="fill: none; stroke: #d62728; stroke-width: 1.5; stroke-linecap: square"/>
   </g>
   <g id="patch_3">
    <path d="M 35.805 108.78 
L 35.805 12.96 
" style="fill: none; stroke: #000000; stroke-width: 1.25; stroke-linejoin: miter; stroke-linecap: square"/>
   </g>
   <g id="patch_4">
    <path d="M 235.08 108.78 
L 235.08 12.96 
" style="fill: none; stroke: #000000; stroke-width: 1.25; stroke-linejoin: miter; stroke-linecap: square"/>
   </g>
   <g id="patch_5">
    <path d="M 35.805 108.78 
L 235.08 108.78 
" style="fill: none; stroke: #000000; stroke-width: 1.25; stroke-linejoin: miter; stroke-linecap: square"/>
   </g>
   <g id="patch_6">
    <path d="M 35.805 12.96 
L 235.08 12.96 
" style="fill: none; stroke: #000000; stroke-width: 1.25; stroke-linejoin: miter; stroke-linecap: square"/>
   </g>
   <g id="legend_1">
    <g id="patch_7">
     <path d="M 108.36 104.28 
L 228.78 104.28 
Q 230.58 104.28 230.58 102.48 
L 230.58 75.12 
Q 230.58 73.32 228.78 73.32 
L 108.36 73.32 
Q 106.56 73.32 106.56 75.12 
L 106.56 102.48 
Q 106.56 104.28 108.36 104.28 
z
" style="fill: #ffffff; opacity: 0.8; stroke: #cccccc; stroke-linejoin: miter"/>
    </g>
    <g id="line2d_93">
     <path d="M 110.16 81.61125 
L 119.16 81.61125 
L 128.16 81.61125 
" style="fill: none; stroke: #1f77b4; stroke-width: 1.5; stroke-linecap: square"/>
    </g>
    <g id="text_13">
     <!-- $\langle111\rangle$ -->
     <g transform="translate(135.36 84.76125) scale(0.09 -0.09)">
      <defs>
       <path id="DejaVuSans-27e8" d="M 572 2006 
L 1453 4856 
L 1984 4856 
L 1103 2006 
L 1984 -844 
L 1453 -844 
L 572 2006 
z
" transform="scale(0.015625)"/>
       <path id="DejaVuSans-31" d="M 794 531 
L 1825 531 
L 1825 4091 
L 703 3866 
L 703 4441 
L 1819 4666 
L 2450 4666 
L 2450 531 
L 3481 531 
L 3481 0 
L 794 0 
L 794 531 
z
" transform="scale(0.015625)"/>
       <path id="DejaVuSans-27e9" d="M 1925 2006 
L 1044 -844 
L 513 -844 
L 1394 2006 
L 513 4856 
L 1044 4856 
L 1925 2006 
z
" transform="scale(0.015625)"/>
      </defs>
      <use xlink:href="#DejaVuSans-27e8" transform="translate(0 0.125)"/>
      <use xlink:href="#DejaVuSans-31" transform="translate(39.013672 0.125)"/>
      <use xlink:href="#DejaVuSans-31" transform="translate(102.636719 0.125)"/>
      <use xlink:href="#DejaVuSans-31" transform="translate(166.259766 0.125)"/>
      <use xlink:href="#DejaVuSans-27e9" transform="translate(229.882812 0.125)"/>
     </g>
    </g>
    <g id="line2d_94">
     <path d="M 110.16 95.74125 
L 119.16 95.74125 
L 128.16 95.74125 
" style="fill: none; stroke: #ff7f0e; stroke-width: 1.5; stroke-linecap: square"/>
    </g>
    <g id="text_14">
     <!-- $\langle1\bar{1}1\rangle$ -->
     <g transform="translate(135.36 98.89125) scale(0.09 -0.09)">
      <defs>
       <path id="DejaVuSans-304" d="M -2518 4769 
L -650 4769 
L -650 4306 
L -2518 4306 
L -2518 4769 
z
" transform="scale(0.015625)"/>
      </defs>
      <use xlink:href="#DejaVuSans-27e8" transform="translate(0 0.359375)"/>
      <use xlink:href="#DejaVuSans-31" transform="translate(39.013672 0.359375)"/>
      <use xlink:href="#DejaVuSans-304" transform="translate(166.88623 18.484375)"/>
      <use xlink:href="#DejaVuSans-31" transform="translate(102.636719 0.359375)"/>
      <use xlink:href="#DejaVuSans-31" transform="translate(166.259766 0.359375)"/>
      <use xlink:href="#DejaVuSans-27e9" transform="translate(229.882812 0.359375)"/>
     </g>
    </g>
    <g id="line2d_95">
     <path d="M 177.57 81.61125 
L 186.57 81.61125 
L 195.57 81.61125 
" style="fill: none; stroke: #2ca02c; stroke-width: 1.5; stroke-linecap: square"/>
    </g>
    <g id="text_15">
     <!-- $\langle11\bar{1}\rangle$ -->
     <g transform="translate(202.77 84.76125) scale(0.09 -0.09)">
      <use xlink:href="#DejaVuSans-27e8" transform="translate(0 0.359375)"/>
      <use xlink:href="#DejaVuSans-31" transform="translate(39.013672 0.359375)"/>
      <use xlink:href="#DejaVuSans-31" transform="translate(102.636719 0.359375)"/>
      <use xlink:href="#DejaVuSans-304" transform="translate(230.509277 18.484375)"/>
      <use xlink:href="#DejaVuSans-31" transform="translate(166.259766 0.359375)"/>
      <use xlink:href="#DejaVuSans-27e9" transform="translate(229.882812 0.359375)"/>
     </g>
    </g>
    <g id="line2d_96">
     <path d="M 177.57 95.74125 
L 186.57 95.74125 
L 195.57 95.74125 
" style="fill: none; stroke: #d62728; stroke-width: 1.5; stroke-linecap: square"/>
    </g>
    <g id="text_16">
     <!-- $\langle\bar{1}11\rangle$ -->
     <g transform="translate(202.77 98.89125) scale(0.09 -0.09)">
      <use xlink:href="#DejaVuSans-27e8" transform="translate(0 0.359375)"/>
      <use xlink:href="#DejaVuSans-304" transform="translate(103.263184 18.484375)"/>
      <use xlink:href="#DejaVuSans-31" transform="translate(39.013672 0.359375)"/>
      <use xlink:href="#DejaVuSans-31" transform="translate(102.636719 0.359375)"/>
      <use xlink:href="#DejaVuSans-31" transform="translate(166.259766 0.359375)"/>
      <use xlink:href="#DejaVuSans-27e9" transform="translate(229.882812 0.359375)"/>
     </g>
    </g>
   </g>
  </g>
 </g>
 <defs>
  <clipPath id="pb2634a3e6e">
   <rect x="35.805" y="12.96" width="199.275" height="95.82"/>
  </clipPath>
 </defs>
</svg>
